<svg width="81" height="32" viewBox="0 0 81 32" fill="none" xmlns="http://www.w3.org/2000/svg">
<path d="M11.5146 27.0059C11.5146 27.3203 11.3438 27.6211 11.002 27.9082C10.6738 28.1953 10.2432 28.4619 9.70996 28.708C9.19043 28.9404 8.60938 29.1592 7.9668 29.3643C7.33789 29.5557 6.71582 29.7197 6.10059 29.8564C5.49902 29.9932 4.94531 30.0957 4.43945 30.1641C3.93359 30.2461 3.55762 30.2871 3.31152 30.2871C2.84668 30.2871 2.41602 30.2324 2.01953 30.123C1.63672 30.0137 1.30176 29.8496 1.01465 29.6309C0.727539 29.3984 0.501953 29.1045 0.337891 28.749C0.1875 28.3936 0.112305 27.9629 0.112305 27.457C0.112305 23.8066 0.125977 20.1699 0.15332 16.5469C0.180664 12.9238 0.194336 9.27344 0.194336 5.5957C0.194336 5.02148 0.180664 4.4541 0.15332 3.89355C0.125977 3.33301 0.112305 2.76562 0.112305 2.19141C0.112305 2.05469 0.119141 1.89746 0.132812 1.71973C0.146484 1.52832 0.180664 1.35742 0.235352 1.20703C0.290039 1.04297 0.37207 0.90625 0.481445 0.796875C0.59082 0.6875 0.741211 0.632812 0.932617 0.632812C1.12402 0.632812 1.32227 0.660156 1.52734 0.714844C1.74609 0.769531 1.94434 0.851563 2.12207 0.960938C2.31348 1.07031 2.47754 1.20703 2.61426 1.37109C2.76465 1.52148 2.87402 1.69922 2.94238 1.9043C3.01074 2.15039 3.03809 2.41699 3.02441 2.7041C3.02441 2.97754 3.02441 3.25781 3.02441 3.54492C3.09277 7.18164 3.14062 10.791 3.16797 14.373C3.20898 17.9551 3.22949 21.5645 3.22949 25.2012C3.22949 25.6113 3.22949 26.0215 3.22949 26.4316C3.24316 26.8418 3.27051 27.252 3.31152 27.6621C3.68066 27.6484 4.13184 27.5869 4.66504 27.4775C5.19824 27.3682 5.73145 27.2314 6.26465 27.0674C6.81152 26.8896 7.32422 26.6914 7.80273 26.4727C8.28125 26.2539 8.65723 26.0215 8.93066 25.7754C9.05371 25.6523 9.18359 25.5293 9.32031 25.4062C9.45703 25.2695 9.62793 25.2012 9.83301 25.2012C10.0107 25.2012 10.1953 25.2627 10.3867 25.3857C10.5918 25.5088 10.7764 25.666 10.9404 25.8574C11.1045 26.0352 11.2412 26.2266 11.3506 26.4316C11.46 26.6367 11.5146 26.8281 11.5146 27.0059ZM14.4062 12.7529C14.4062 12.9854 14.3516 13.1562 14.2422 13.2656C14.1465 13.3613 13.9619 13.4092 13.6885 13.4092C13.5654 13.4092 13.374 13.3955 13.1143 13.3682C12.8545 13.3271 12.5879 13.2725 12.3145 13.2041C12.0547 13.1357 11.8223 13.04 11.6172 12.917C11.4258 12.7939 11.3301 12.6436 11.3301 12.4658C11.3301 12.4111 11.3506 12.2607 11.3916 12.0146C11.4326 11.7549 11.4805 11.4814 11.5352 11.1943C11.6035 10.9072 11.6582 10.6475 11.6992 10.415C11.7539 10.1826 11.7949 10.0527 11.8223 10.0254V10.0459C11.8906 9.93652 11.9727 9.86816 12.0684 9.84082C12.1641 9.81348 12.2598 9.7998 12.3555 9.7998C12.4785 9.7998 12.6357 9.82031 12.8271 9.86133C13.0322 9.88867 13.2305 9.93652 13.4219 10.0049C13.627 10.0596 13.8115 10.1348 13.9756 10.2305C14.1396 10.3262 14.2422 10.4287 14.2832 10.5381C14.3242 10.6475 14.3447 10.7979 14.3447 10.9893C14.3584 11.167 14.3584 11.3311 14.3447 11.4814C14.3447 11.5361 14.3379 11.6045 14.3242 11.6865C14.3242 11.7549 14.3242 11.8096 14.3242 11.8506C14.3242 11.9189 14.3242 11.9873 14.3242 12.0557C14.3379 12.124 14.3516 12.1924 14.3652 12.2607C14.3789 12.3291 14.3857 12.4043 14.3857 12.4863C14.3994 12.5684 14.4062 12.6572 14.4062 12.7529ZM15.165 29.0977C15.165 29.4121 15.0898 29.6377 14.9395 29.7744C14.8027 29.8975 14.5771 29.959 14.2627 29.959C14.0986 29.959 13.9141 29.9385 13.709 29.8975C13.5176 29.8564 13.3262 29.8018 13.1348 29.7334C12.9434 29.6514 12.7656 29.5557 12.6016 29.4463C12.4375 29.3369 12.3145 29.2139 12.2324 29.0771C12.1777 28.9951 12.1299 28.7422 12.0889 28.3184C12.0479 27.8945 12.0137 27.3682 11.9863 26.7393C11.9727 26.1104 11.9521 25.4062 11.9248 24.627C11.9111 23.8477 11.8975 23.0615 11.8838 22.2686C11.8838 21.4756 11.8838 20.7031 11.8838 19.9512C11.8838 19.1992 11.8838 18.543 11.8838 17.9824V16.4033C11.8838 16.2666 11.8838 16.1299 11.8838 15.9932C11.8975 15.8564 11.9248 15.7402 11.9658 15.6445C12.0205 15.5352 12.0957 15.4463 12.1914 15.3779C12.3008 15.3096 12.4512 15.2754 12.6426 15.2754C13.2441 15.2754 13.6816 15.4463 13.9551 15.7881C14.2422 16.1162 14.4199 16.5605 14.4883 17.1211C14.5566 17.9551 14.6045 18.7891 14.6318 19.623C14.6729 20.4434 14.707 21.2773 14.7344 22.125C14.7617 22.8906 14.7822 23.6494 14.7959 24.4014C14.8232 25.1396 14.8711 25.8779 14.9395 26.6162C14.9531 26.7666 14.9668 26.9102 14.9805 27.0469C14.9941 27.1836 15.0146 27.3203 15.042 27.457C15.0693 27.7305 15.0967 28.0039 15.124 28.2773C15.1514 28.5371 15.165 28.8105 15.165 29.0977ZM20.3945 29.8975C20.3945 30.2119 20.2988 30.417 20.1074 30.5127C19.9297 30.6084 19.7109 30.6562 19.4512 30.6562C19.2188 30.6562 18.9863 30.6357 18.7539 30.5947C18.5352 30.5674 18.3232 30.5059 18.1182 30.4102C17.9268 30.3145 17.7559 30.1846 17.6055 30.0205C17.4688 29.8564 17.373 29.6445 17.3184 29.3848C17.127 28.5645 17.0176 27.7646 16.9902 26.9854C16.9629 26.1924 16.9492 25.3789 16.9492 24.5449V22.0225C16.9492 20.874 16.9971 19.6846 17.0928 18.4541C17.1885 17.21 17.291 16.0137 17.4004 14.8652C17.4004 14.8242 17.4072 14.7764 17.4209 14.7217C17.4346 14.667 17.4414 14.626 17.4414 14.5986C17.4551 14.4482 17.4756 14.2842 17.5029 14.1064C17.5303 13.9287 17.5713 13.7715 17.626 13.6348C17.6943 13.4844 17.7832 13.3613 17.8926 13.2656C18.0156 13.1699 18.1729 13.1221 18.3643 13.1221C18.583 13.1221 18.7881 13.1699 18.9795 13.2656C19.1846 13.3477 19.3623 13.4639 19.5127 13.6143C19.6631 13.751 19.7793 13.9219 19.8613 14.127C19.957 14.332 20.0049 14.5439 20.0049 14.7627C20.0049 14.9951 19.998 15.2549 19.9844 15.542C19.9707 15.8154 19.9502 16.0752 19.9229 16.3213C19.9229 16.3896 19.916 16.4648 19.9023 16.5469C19.9023 16.6289 19.8955 16.7041 19.8818 16.7725C20.0732 16.3896 20.292 15.9932 20.5381 15.583C20.7842 15.1592 21.0645 14.7764 21.3789 14.4346C21.707 14.0791 22.0625 13.792 22.4453 13.5732C22.8418 13.3545 23.2793 13.2451 23.7578 13.2451C24.1543 13.2451 24.4824 13.3066 24.7422 13.4297C25.002 13.5527 25.207 13.7305 25.3574 13.9629C25.5215 14.1816 25.6309 14.4414 25.6855 14.7422C25.7539 15.043 25.7881 15.3643 25.7881 15.7061C25.7881 16.1709 25.7744 16.6426 25.7471 17.1211C25.7197 17.5859 25.6924 18.0508 25.665 18.5156C25.624 18.9941 25.5898 19.4658 25.5625 19.9307C25.5352 20.3955 25.5215 20.8672 25.5215 21.3457C25.5215 21.9199 25.5352 22.5146 25.5625 23.1299C25.5898 23.7314 25.6309 24.3125 25.6855 24.873C25.7402 25.4199 25.8018 25.9189 25.8701 26.3701C25.9385 26.8076 26.0068 27.1494 26.0752 27.3955C26.1299 27.6006 26.1846 27.8398 26.2393 28.1133C26.3076 28.373 26.3691 28.6465 26.4238 28.9336C26.4922 29.207 26.5469 29.4736 26.5879 29.7334C26.6289 29.9932 26.6494 30.2256 26.6494 30.4307C26.6494 30.7314 26.5264 30.9229 26.2803 31.0049C26.0479 31.0869 25.8154 31.1279 25.583 31.1279C25.3506 31.1279 25.084 31.1074 24.7832 31.0664C24.4961 31.0391 24.2363 30.9639 24.0039 30.8408C23.7168 30.6357 23.5254 30.3486 23.4297 29.9795C23.3477 29.6104 23.293 29.248 23.2656 28.8926L23.2041 28.3389C23.1631 28.0107 23.1084 27.5801 23.04 27.0469C22.9717 26.5137 22.9033 25.9258 22.835 25.2832C22.7803 24.6406 22.7324 23.9775 22.6914 23.2939C22.6504 22.5967 22.6299 21.9199 22.6299 21.2637C22.6299 20.6758 22.6504 20.1084 22.6914 19.5615C22.7461 19.0146 22.8008 18.4609 22.8555 17.9004C22.8828 17.6133 22.9033 17.3809 22.917 17.2031C22.9307 17.0254 22.9512 16.793 22.9785 16.5059C22.7051 16.9434 22.4316 17.4561 22.1582 18.0439C21.8848 18.6318 21.625 19.2471 21.3789 19.8896C21.1328 20.5186 20.9072 21.1338 20.7021 21.7354C20.5107 22.3369 20.3604 22.8633 20.251 23.3145L20.1279 23.7656C20.0596 23.9844 19.998 24.2031 19.9434 24.4219C19.9023 24.6406 19.8818 24.8457 19.8818 25.0371C19.8818 25.2832 19.8955 25.5703 19.9229 25.8984C19.9502 26.2129 19.9844 26.5137 20.0254 26.8008C20.0664 27.1426 20.1143 27.4912 20.1689 27.8467C20.1689 27.874 20.1826 27.9629 20.21 28.1133C20.2373 28.2637 20.2646 28.4414 20.292 28.6465C20.3193 28.8516 20.3398 29.0703 20.3535 29.3027C20.3809 29.5215 20.3945 29.7197 20.3945 29.8975ZM36.8418 16.4648C36.8418 16.6016 36.8281 16.7451 36.8008 16.8955C36.7734 17.0459 36.7461 17.1826 36.7188 17.3057C36.6914 17.4561 36.6641 17.5996 36.6367 17.7363C36.6094 17.8594 36.5957 17.9824 36.5957 18.1055C36.5957 19.377 36.6162 20.6553 36.6572 21.9404C36.7119 23.2119 36.8486 24.4902 37.0674 25.7754C37.1357 26.2676 37.2178 26.7461 37.3135 27.2109C37.4092 27.6758 37.5186 28.1475 37.6416 28.626L37.6826 28.749V28.708C37.7236 28.8037 37.7578 28.9062 37.7852 29.0156C37.8262 29.1113 37.8467 29.2139 37.8467 29.3232C37.8467 29.4736 37.8057 29.5967 37.7236 29.6924C37.6553 29.7881 37.5664 29.8633 37.457 29.918C37.3477 29.9727 37.2246 30.0068 37.0879 30.0205C36.9648 30.0342 36.8486 30.041 36.7393 30.041C36.2881 30.041 35.9258 29.9932 35.6523 29.8975C35.3926 29.7881 35.1807 29.6445 35.0166 29.4668C34.8525 29.2754 34.7295 29.0498 34.6475 28.79C34.5791 28.5303 34.5176 28.2432 34.4629 27.9287L34.4014 27.5596C34.3467 27.3682 34.3125 27.1631 34.2988 26.9443C34.2852 26.835 34.2715 26.7871 34.2578 26.8008C34.2578 26.8008 34.251 26.7461 34.2373 26.6367C34.0459 26.9785 33.8203 27.3477 33.5605 27.7441C33.3145 28.127 33.0273 28.4893 32.6992 28.8311C32.3848 29.1592 32.043 29.4395 31.6738 29.6719C31.3047 29.8906 30.9082 30 30.4844 30C29.8965 30 29.4385 29.8223 29.1104 29.4668C28.7959 29.1113 28.5635 28.6807 28.4131 28.1748C28.2627 27.6553 28.1738 27.1221 28.1465 26.5752C28.1191 26.0146 28.1055 25.5293 28.1055 25.1191C28.1055 23.5605 28.1533 22.0156 28.249 20.4844C28.3584 18.9531 28.4746 17.415 28.5977 15.8701C28.5977 15.8291 28.5977 15.7744 28.5977 15.7061C28.6113 15.6377 28.6182 15.583 28.6182 15.542C28.6318 15.3506 28.6455 15.1729 28.6592 15.0088C28.6729 14.8447 28.707 14.6875 28.7617 14.5371V14.5576C28.8164 14.3389 28.8916 14.1816 28.9873 14.0859C29.0967 13.9902 29.2607 13.9424 29.4795 13.9424C29.6846 13.9424 29.8896 13.9834 30.0947 14.0654C30.2998 14.1338 30.4844 14.2363 30.6484 14.373C30.8125 14.4961 30.9424 14.6465 31.0381 14.8242C31.1475 15.002 31.2021 15.2002 31.2021 15.4189C31.2021 15.5283 31.2021 15.6582 31.2021 15.8086C31.2021 15.959 31.1953 16.0889 31.1816 16.1982C31.1816 16.2939 31.1748 16.417 31.1611 16.5674C31.1611 16.7041 31.1611 16.8203 31.1611 16.916C31.0518 18.2285 30.9697 19.5342 30.915 20.833C30.8604 22.1182 30.833 23.4238 30.833 24.75C30.833 25.1191 30.833 25.4883 30.833 25.8574C30.8467 26.2266 30.8877 26.5957 30.9561 26.9648C31.4072 26.3906 31.7969 25.6592 32.125 24.7705C32.4531 23.8682 32.7266 22.918 32.9453 21.9199C33.1777 20.9082 33.3623 19.9102 33.499 18.9258C33.6494 17.9277 33.7588 17.0459 33.8271 16.2803C33.8271 16.2393 33.8271 16.1914 33.8271 16.1367C33.8408 16.082 33.8477 16.0342 33.8477 15.9932C33.8613 15.8428 33.875 15.6992 33.8887 15.5625C33.9023 15.4258 33.9502 15.2959 34.0322 15.1729C34.0322 15.0498 34.0391 14.9199 34.0527 14.7832C34.0664 14.6465 34.1006 14.5234 34.1553 14.4141C34.21 14.291 34.2852 14.1953 34.3809 14.127C34.4902 14.0586 34.6406 14.0244 34.832 14.0244C35.3789 14.0244 35.8096 14.1953 36.124 14.5371C36.4385 14.8652 36.6094 15.2891 36.6367 15.8086C36.7051 15.918 36.7529 16.0273 36.7803 16.1367C36.8213 16.2324 36.8418 16.3418 36.8418 16.4648ZM47.916 29.2822C47.916 29.4463 47.8545 29.5762 47.7314 29.6719C47.6221 29.7539 47.4922 29.8154 47.3418 29.8564C47.1914 29.8975 47.0342 29.9248 46.8701 29.9385C46.7061 29.9521 46.5762 29.959 46.4805 29.959C46.2754 29.959 46.0908 29.9521 45.9268 29.9385C45.7627 29.9248 45.6055 29.8906 45.4551 29.8359C45.3184 29.7812 45.1885 29.6992 45.0654 29.5898C44.9424 29.4805 44.8193 29.3301 44.6963 29.1387C44.4639 28.7148 44.2451 28.2773 44.04 27.8262C43.8486 27.375 43.6572 26.9307 43.4658 26.4932C43.3701 26.2471 43.2881 26.0488 43.2197 25.8984C43.165 25.748 43.083 25.5566 42.9736 25.3242C42.6729 26.1035 42.3652 26.8623 42.0508 27.6006C41.75 28.3389 41.4355 29.0771 41.1074 29.8154C41.0117 30.0068 40.9023 30.1914 40.7793 30.3691C40.6699 30.5605 40.4717 30.6562 40.1846 30.6562C40.0342 30.6562 39.8496 30.6084 39.6309 30.5127C39.4258 30.4307 39.2207 30.3145 39.0156 30.1641C38.8242 30.0273 38.6533 29.8701 38.5029 29.6924C38.3662 29.5146 38.2979 29.3369 38.2979 29.1592C38.2979 29.0225 38.3252 28.8857 38.3799 28.749C38.4346 28.5986 38.4961 28.4551 38.5645 28.3184H38.5439C39.0635 27.1973 39.5488 26.0967 40 25.0166C40.4648 23.9229 40.9229 22.8223 41.374 21.7148C41.2783 21.4961 41.1416 21.1611 40.9639 20.71C40.7998 20.2588 40.6152 19.7598 40.4102 19.2129C40.2051 18.666 39.9932 18.0918 39.7744 17.4902C39.5557 16.8887 39.3574 16.3281 39.1797 15.8086C39.0156 15.2754 38.8721 14.8105 38.749 14.4141C38.6396 14.0039 38.585 13.7168 38.585 13.5527C38.585 13.2793 38.667 13.1084 38.8311 13.04C39.0088 12.958 39.207 12.917 39.4258 12.917C39.8633 12.917 40.2393 13.0059 40.5537 13.1836C40.8818 13.3613 41.1348 13.6621 41.3125 14.0859C41.3809 14.2637 41.4492 14.4551 41.5176 14.6602C41.5996 14.8516 41.668 15.043 41.7227 15.2344L41.9072 15.7471C42.0713 16.1846 42.2148 16.5811 42.3379 16.9365C42.4746 17.292 42.6387 17.6816 42.8301 18.1055C43.1719 17.2305 43.4863 16.3281 43.7734 15.3984C44.0742 14.4551 44.293 13.5117 44.4297 12.5684L44.4912 12.0146C44.4912 11.8232 44.5186 11.6182 44.5732 11.3994C44.6416 11.208 44.7168 11.0645 44.7988 10.9688C44.8945 10.873 45.0586 10.8252 45.291 10.8252C45.5098 10.8252 45.7217 10.8594 45.9268 10.9277C46.1318 10.9961 46.3164 11.0986 46.4805 11.2354C46.6445 11.3584 46.7744 11.5156 46.8701 11.707C46.9795 11.8848 47.0342 12.0967 47.0342 12.3428C47.0342 12.7256 46.9863 13.1768 46.8906 13.6963C46.8086 14.2021 46.6924 14.7422 46.542 15.3164C46.3916 15.877 46.2207 16.458 46.0293 17.0596C45.8516 17.6611 45.6602 18.249 45.4551 18.8232C45.2637 19.3838 45.0723 19.917 44.8809 20.4229C44.7031 20.915 44.5459 21.3457 44.4092 21.7148L45.6602 24.3604C45.9062 24.8799 46.1592 25.4199 46.4189 25.9805C46.6924 26.541 46.9385 27.0605 47.1572 27.5391C47.376 28.0039 47.5537 28.4004 47.6904 28.7285C47.8408 29.0566 47.916 29.2412 47.916 29.2822ZM60.6514 27.0059C60.6514 27.3203 60.4805 27.6211 60.1387 27.9082C59.8105 28.1953 59.3799 28.4619 58.8467 28.708C58.3271 28.9404 57.7461 29.1592 57.1035 29.3643C56.4746 29.5557 55.8525 29.7197 55.2373 29.8564C54.6357 29.9932 54.082 30.0957 53.5762 30.1641C53.0703 30.2461 52.6943 30.2871 52.4482 30.2871C51.9834 30.2871 51.5527 30.2324 51.1562 30.123C50.7734 30.0137 50.4385 29.8496 50.1514 29.6309C49.8643 29.3984 49.6387 29.1045 49.4746 28.749C49.3242 28.3936 49.249 27.9629 49.249 27.457C49.249 23.8066 49.2627 20.1699 49.29 16.5469C49.3174 12.9238 49.3311 9.27344 49.3311 5.5957C49.3311 5.02148 49.3174 4.4541 49.29 3.89355C49.2627 3.33301 49.249 2.76562 49.249 2.19141C49.249 2.05469 49.2559 1.89746 49.2695 1.71973C49.2832 1.52832 49.3174 1.35742 49.3721 1.20703C49.4268 1.04297 49.5088 0.90625 49.6182 0.796875C49.7275 0.6875 49.8779 0.632812 50.0693 0.632812C50.2607 0.632812 50.459 0.660156 50.6641 0.714844C50.8828 0.769531 51.0811 0.851563 51.2588 0.960938C51.4502 1.07031 51.6143 1.20703 51.751 1.37109C51.9014 1.52148 52.0107 1.69922 52.0791 1.9043C52.1475 2.15039 52.1748 2.41699 52.1611 2.7041C52.1611 2.97754 52.1611 3.25781 52.1611 3.54492C52.2295 7.18164 52.2773 10.791 52.3047 14.373C52.3457 17.9551 52.3662 21.5645 52.3662 25.2012C52.3662 25.6113 52.3662 26.0215 52.3662 26.4316C52.3799 26.8418 52.4072 27.252 52.4482 27.6621C52.8174 27.6484 53.2686 27.5869 53.8018 27.4775C54.335 27.3682 54.8682 27.2314 55.4014 27.0674C55.9482 26.8896 56.4609 26.6914 56.9395 26.4727C57.418 26.2539 57.7939 26.0215 58.0674 25.7754C58.1904 25.6523 58.3203 25.5293 58.457 25.4062C58.5938 25.2695 58.7646 25.2012 58.9697 25.2012C59.1475 25.2012 59.332 25.2627 59.5234 25.3857C59.7285 25.5088 59.9131 25.666 60.0771 25.8574C60.2412 26.0352 60.3779 26.2266 60.4873 26.4316C60.5967 26.6367 60.6514 26.8281 60.6514 27.0059ZM69.6543 29.7334C69.6543 30.0068 69.5859 30.1914 69.4492 30.2871C69.3125 30.3965 69.1211 30.4512 68.875 30.4512C68.2324 30.4512 67.7676 30.2803 67.4805 29.9385C67.207 29.5967 67.002 29.1455 66.8652 28.585C66.8242 28.3936 66.7832 28.2021 66.7422 28.0107C66.7012 27.8057 66.667 27.6074 66.6396 27.416C66.6123 27.2383 66.585 27.1152 66.5576 27.0469C66.5303 26.9785 66.5029 26.8486 66.4756 26.6572C66.3115 27.0537 66.1064 27.4707 65.8604 27.9082C65.6279 28.332 65.3545 28.7285 65.04 29.0977C64.7256 29.4531 64.3701 29.7471 63.9736 29.9795C63.5908 30.2119 63.167 30.3281 62.7021 30.3281C62.21 30.3281 61.7998 30.2119 61.4717 29.9795C61.1436 29.7334 60.8838 29.4326 60.6924 29.0771C60.5146 28.708 60.3848 28.3047 60.3027 27.8672C60.2344 27.4297 60.2002 27.0127 60.2002 26.6162C60.2002 25.6865 60.2891 24.6816 60.4668 23.6016C60.6582 22.5078 60.918 21.4209 61.2461 20.3408C61.5742 19.2471 61.957 18.2012 62.3945 17.2031C62.832 16.1914 63.3105 15.3096 63.8301 14.5576V14.5781L63.9531 14.3936C64.1035 14.1885 64.2744 13.9697 64.4658 13.7373C64.6709 13.4912 64.9102 13.3682 65.1836 13.3682C65.4434 13.3682 65.6689 13.4844 65.8604 13.7168C66.0518 13.9355 66.1885 14.168 66.2705 14.4141C66.626 14.4824 66.9131 14.5713 67.1318 14.6807C67.3506 14.7764 67.5215 14.8994 67.6445 15.0498C67.7676 15.2002 67.8496 15.3779 67.8906 15.583C67.9316 15.7744 67.9521 15.9863 67.9521 16.2188C67.9521 16.3145 67.9521 16.417 67.9521 16.5264C67.9521 16.6357 67.9453 16.7451 67.9316 16.8545C67.918 16.9639 67.9111 17.0938 67.9111 17.2441C67.9111 17.3945 67.9111 17.5312 67.9111 17.6543C67.9111 17.791 67.9316 17.9688 67.9727 18.1875C68.0273 18.4062 68.082 18.6318 68.1367 18.8643L68.2803 19.623C68.3486 20.0195 68.4033 20.4707 68.4443 20.9766C68.499 21.4824 68.5605 21.9883 68.6289 22.4941C68.6836 23.0137 68.7383 23.5195 68.793 24.0117C68.8477 24.4902 68.9023 24.9346 68.957 25.3447L69.4492 28.3799L69.5107 28.7285C69.5381 28.9062 69.5654 29.0703 69.5928 29.2207C69.6338 29.3711 69.6543 29.542 69.6543 29.7334ZM64.958 17.9414C64.958 17.9141 64.9512 17.873 64.9375 17.8184C64.9238 17.75 64.9102 17.6816 64.8965 17.6133C64.582 18.2832 64.3018 19.0146 64.0557 19.8076C63.8232 20.5869 63.625 21.3867 63.4609 22.207C63.3105 23.0137 63.1943 23.8271 63.1123 24.6475C63.0439 25.4541 63.0098 26.2197 63.0098 26.9443C63.0098 27.0127 63.0098 27.0742 63.0098 27.1289C63.0098 27.1836 63.0166 27.2383 63.0303 27.293V27.3135C63.3584 26.8076 63.6387 26.1445 63.8711 25.3242C64.1172 24.4902 64.3223 23.6221 64.4863 22.7197C64.6504 21.8037 64.7666 20.9219 64.835 20.0742C64.917 19.2129 64.958 18.502 64.958 17.9414ZM80.4004 18.4131C80.4004 18.9736 80.373 19.5957 80.3184 20.2793C80.2637 20.9492 80.1816 21.6465 80.0723 22.3711C79.9629 23.0957 79.8125 23.8271 79.6211 24.5654C79.4434 25.29 79.2246 25.9873 78.9648 26.6572C78.7051 27.3271 78.3975 27.9492 78.042 28.5234C77.7002 29.084 77.3105 29.5557 76.873 29.9385C76.5586 30.2119 76.2031 30.4307 75.8066 30.5947C75.4238 30.7725 75.0273 30.8613 74.6172 30.8613C74.4668 30.8613 74.3096 30.834 74.1455 30.7793C73.9814 30.7383 73.8584 30.6289 73.7764 30.4512C73.4756 30.4238 73.1748 30.3623 72.874 30.2666C72.5869 30.1846 72.3477 29.9932 72.1562 29.6924C72.1152 29.5967 72.0811 29.4805 72.0537 29.3438C72.0264 29.207 71.999 29.0635 71.9717 28.9131C71.958 28.8447 71.9443 28.7832 71.9307 28.7285C71.917 28.6602 71.9033 28.5986 71.8896 28.5439C71.4932 26.083 71.2197 23.6221 71.0693 21.1611C70.9326 18.7002 70.8643 16.2188 70.8643 13.7168C70.8643 13.498 70.8643 13.1152 70.8643 12.5684C70.8643 12.0215 70.8643 11.3994 70.8643 10.7021C70.8779 10.0049 70.8848 9.27344 70.8848 8.50781C70.8984 7.74219 70.9121 7.02441 70.9258 6.35449C70.9395 5.68457 70.96 5.11035 70.9873 4.63184C71.0146 4.13965 71.042 3.8252 71.0693 3.68848C71.124 3.49707 71.1992 3.33984 71.2949 3.2168C71.3906 3.09375 71.5547 3.03223 71.7871 3.03223C72.4297 3.03223 72.8877 3.2373 73.1611 3.64746C73.4482 4.04395 73.5918 4.53613 73.5918 5.12402V10.3945C73.5918 11.0371 73.5918 11.6182 73.5918 12.1377C73.5918 12.6436 73.5918 13.1426 73.5918 13.6348C73.6055 14.1133 73.6191 14.6123 73.6328 15.1318C73.6465 15.6377 73.667 16.2051 73.6943 16.834C73.8584 16.4648 74.0566 16.1025 74.2891 15.7471C74.5352 15.3916 74.8086 15.0703 75.1094 14.7832C75.4102 14.4961 75.7451 14.2637 76.1143 14.0859C76.4834 13.9082 76.8936 13.8193 77.3447 13.8193C78.001 13.8193 78.5273 13.9629 78.9238 14.25C79.334 14.5371 79.6416 14.9062 79.8467 15.3574C80.0654 15.7949 80.209 16.2871 80.2773 16.834C80.3594 17.3809 80.4004 17.9072 80.4004 18.4131ZM77.5703 17.9414C77.5703 17.668 77.5566 17.3672 77.5293 17.0391C77.5156 16.7109 77.4336 16.4238 77.2832 16.1777C77.1602 16.2734 77.0508 16.376 76.9551 16.4854C76.873 16.5947 76.7842 16.7178 76.6885 16.8545L76.6475 16.916V16.8955C76.2646 17.5244 75.9502 18.2559 75.7041 19.0898C75.4717 19.9238 75.2803 20.792 75.1299 21.6943C74.9932 22.583 74.8975 23.4717 74.8428 24.3604C74.7881 25.2354 74.7607 26.0283 74.7607 26.7393C74.7607 26.8896 74.7607 27.1152 74.7607 27.416C74.7744 27.7031 74.8018 27.9424 74.8428 28.1338C75.376 27.6826 75.8135 27.0264 76.1553 26.165C76.5107 25.29 76.791 24.3535 76.9961 23.3555C77.2148 22.3438 77.3652 21.3525 77.4473 20.3818C77.5293 19.4111 77.5703 18.5977 77.5703 17.9414Z" fill="#F4F2C9"/>
</svg>
