<svg width="184" height="71" viewBox="0 0 184 71" fill="none" xmlns="http://www.w3.org/2000/svg">
<path d="M26.1562 61.1562C26.1562 61.875 25.7656 62.5625 24.9844 63.2188C24.2344 63.875 23.25 64.4844 22.0312 65.0469C20.8438 65.5781 19.5156 66.0781 18.0469 66.5469C16.6094 66.9844 15.1875 67.3594 13.7812 67.6719C12.4062 67.9844 11.1406 68.2188 9.98438 68.375C8.82812 68.5625 7.96875 68.6562 7.40625 68.6562C6.34375 68.6562 5.35938 68.5312 4.45312 68.2812C3.57812 68.0312 2.8125 67.6562 2.15625 67.1562C1.5 66.625 0.984375 65.9531 0.609375 65.1406C0.265625 64.3281 0.09375 63.3438 0.09375 62.1875C0.09375 53.8438 0.125 45.5312 0.1875 37.25C0.25 28.9688 0.28125 20.625 0.28125 12.2188C0.28125 10.9062 0.25 9.60937 0.1875 8.32812C0.125 7.04688 0.09375 5.75 0.09375 4.4375C0.09375 4.125 0.109375 3.76563 0.140625 3.35938C0.171875 2.92188 0.25 2.53125 0.375 2.1875C0.5 1.8125 0.6875 1.5 0.9375 1.25C1.1875 1 1.53125 0.875 1.96875 0.875C2.40625 0.875 2.85938 0.9375 3.32812 1.0625C3.82812 1.1875 4.28125 1.375 4.6875 1.625C5.125 1.875 5.5 2.1875 5.8125 2.5625C6.15625 2.90625 6.40625 3.3125 6.5625 3.78125C6.71875 4.34375 6.78125 4.95312 6.75 5.60938C6.75 6.23437 6.75 6.875 6.75 7.53125C6.90625 15.8437 7.01562 24.0938 7.07812 32.2812C7.17188 40.4688 7.21875 48.7188 7.21875 57.0312C7.21875 57.9688 7.21875 58.9062 7.21875 59.8438C7.25 60.7812 7.3125 61.7188 7.40625 62.6562C8.25 62.625 9.28125 62.4844 10.5 62.2344C11.7188 61.9844 12.9375 61.6719 14.1562 61.2969C15.4062 60.8906 16.5781 60.4375 17.6719 59.9375C18.7656 59.4375 19.625 58.9062 20.25 58.3438C20.5312 58.0625 20.8281 57.7812 21.1406 57.5C21.4531 57.1875 21.8438 57.0312 22.3125 57.0312C22.7188 57.0312 23.1406 57.1719 23.5781 57.4531C24.0469 57.7344 24.4688 58.0938 24.8438 58.5312C25.2188 58.9375 25.5312 59.375 25.7812 59.8438C26.0312 60.3125 26.1562 60.75 26.1562 61.1562ZM32.7656 28.5781C32.7656 29.1094 32.6406 29.5 32.3906 29.75C32.1719 29.9688 31.75 30.0781 31.125 30.0781C30.8438 30.0781 30.4062 30.0469 29.8125 29.9844C29.2188 29.8906 28.6094 29.7656 27.9844 29.6094C27.3906 29.4531 26.8594 29.2344 26.3906 28.9531C25.9531 28.6719 25.7344 28.3281 25.7344 27.9219C25.7344 27.7969 25.7812 27.4531 25.875 26.8906C25.9688 26.2969 26.0781 25.6719 26.2031 25.0156C26.3594 24.3594 26.4844 23.7656 26.5781 23.2344C26.7031 22.7031 26.7969 22.4062 26.8594 22.3438V22.3906C27.0156 22.1406 27.2031 21.9844 27.4219 21.9219C27.6406 21.8594 27.8594 21.8281 28.0781 21.8281C28.3594 21.8281 28.7188 21.875 29.1562 21.9688C29.625 22.0312 30.0781 22.1406 30.5156 22.2969C30.9844 22.4219 31.4062 22.5938 31.7812 22.8125C32.1562 23.0312 32.3906 23.2656 32.4844 23.5156C32.5781 23.7656 32.625 24.1094 32.625 24.5469C32.6562 24.9531 32.6562 25.3281 32.625 25.6719C32.625 25.7969 32.6094 25.9531 32.5781 26.1406C32.5781 26.2969 32.5781 26.4219 32.5781 26.5156C32.5781 26.6719 32.5781 26.8281 32.5781 26.9844C32.6094 27.1406 32.6406 27.2969 32.6719 27.4531C32.7031 27.6094 32.7188 27.7812 32.7188 27.9688C32.75 28.1562 32.7656 28.3594 32.7656 28.5781ZM34.5 65.9375C34.5 66.6562 34.3281 67.1719 33.9844 67.4844C33.6719 67.7656 33.1562 67.9062 32.4375 67.9062C32.0625 67.9062 31.6406 67.8594 31.1719 67.7656C30.7344 67.6719 30.2969 67.5469 29.8594 67.3906C29.4219 67.2031 29.0156 66.9844 28.6406 66.7344C28.2656 66.4844 27.9844 66.2031 27.7969 65.8906C27.6719 65.7031 27.5625 65.125 27.4688 64.1562C27.375 63.1875 27.2969 61.9844 27.2344 60.5469C27.2031 59.1094 27.1562 57.5 27.0938 55.7188C27.0625 53.9375 27.0312 52.1406 27 50.3281C27 48.5156 27 46.75 27 45.0312C27 43.3125 27 41.8125 27 40.5312V36.9219C27 36.6094 27 36.2969 27 35.9844C27.0312 35.6719 27.0938 35.4062 27.1875 35.1875C27.3125 34.9375 27.4844 34.7344 27.7031 34.5781C27.9531 34.4219 28.2969 34.3438 28.7344 34.3438C30.1094 34.3438 31.1094 34.7344 31.7344 35.5156C32.3906 36.2656 32.7969 37.2812 32.9531 38.5625C33.1094 40.4688 33.2188 42.375 33.2812 44.2812C33.375 46.1562 33.4531 48.0625 33.5156 50C33.5781 51.75 33.625 53.4844 33.6562 55.2031C33.7188 56.8906 33.8281 58.5781 33.9844 60.2656C34.0156 60.6094 34.0469 60.9375 34.0781 61.25C34.1094 61.5625 34.1562 61.875 34.2188 62.1875C34.2812 62.8125 34.3438 63.4375 34.4062 64.0625C34.4688 64.6562 34.5 65.2812 34.5 65.9375ZM46.4531 67.7656C46.4531 68.4844 46.2344 68.9531 45.7969 69.1719C45.3906 69.3906 44.8906 69.5 44.2969 69.5C43.7656 69.5 43.2344 69.4531 42.7031 69.3594C42.2031 69.2969 41.7188 69.1562 41.25 68.9375C40.8125 68.7188 40.4219 68.4219 40.0781 68.0469C39.7656 67.6719 39.5469 67.1875 39.4219 66.5938C38.9844 64.7188 38.7344 62.8906 38.6719 61.1094C38.6094 59.2969 38.5781 57.4375 38.5781 55.5312V49.7656C38.5781 47.1406 38.6875 44.4219 38.9062 41.6094C39.125 38.7656 39.3594 36.0312 39.6094 33.4062C39.6094 33.3125 39.625 33.2031 39.6562 33.0781C39.6875 32.9531 39.7031 32.8594 39.7031 32.7969C39.7344 32.4531 39.7812 32.0781 39.8438 31.6719C39.9062 31.2656 40 30.9062 40.125 30.5938C40.2812 30.25 40.4844 29.9688 40.7344 29.75C41.0156 29.5312 41.375 29.4219 41.8125 29.4219C42.3125 29.4219 42.7812 29.5312 43.2188 29.75C43.6875 29.9375 44.0938 30.2031 44.4375 30.5469C44.7812 30.8594 45.0469 31.25 45.2344 31.7188C45.4531 32.1875 45.5625 32.6719 45.5625 33.1719C45.5625 33.7031 45.5469 34.2969 45.5156 34.9531C45.4844 35.5781 45.4375 36.1719 45.375 36.7344C45.375 36.8906 45.3594 37.0625 45.3281 37.25C45.3281 37.4375 45.3125 37.6094 45.2812 37.7656C45.7188 36.8906 46.2188 35.9844 46.7812 35.0469C47.3438 34.0781 47.9844 33.2031 48.7031 32.4219C49.4531 31.6094 50.2656 30.9531 51.1406 30.4531C52.0469 29.9531 53.0469 29.7031 54.1406 29.7031C55.0469 29.7031 55.7969 29.8438 56.3906 30.125C56.9844 30.4062 57.4531 30.8125 57.7969 31.3438C58.1719 31.8438 58.4219 32.4375 58.5469 33.125C58.7031 33.8125 58.7812 34.5469 58.7812 35.3281C58.7812 36.3906 58.75 37.4688 58.6875 38.5625C58.625 39.625 58.5625 40.6875 58.5 41.75C58.4062 42.8438 58.3281 43.9219 58.2656 44.9844C58.2031 46.0469 58.1719 47.125 58.1719 48.2188C58.1719 49.5312 58.2031 50.8906 58.2656 52.2969C58.3281 53.6719 58.4219 55 58.5469 56.2812C58.6719 57.5312 58.8125 58.6719 58.9688 59.7031C59.125 60.7031 59.2812 61.4844 59.4375 62.0469C59.5625 62.5156 59.6875 63.0625 59.8125 63.6875C59.9688 64.2812 60.1094 64.9062 60.2344 65.5625C60.3906 66.1875 60.5156 66.7969 60.6094 67.3906C60.7031 67.9844 60.75 68.5156 60.75 68.9844C60.75 69.6719 60.4688 70.1094 59.9062 70.2969C59.375 70.4844 58.8438 70.5781 58.3125 70.5781C57.7812 70.5781 57.1719 70.5312 56.4844 70.4375C55.8281 70.375 55.2344 70.2031 54.7031 69.9219C54.0469 69.4531 53.6094 68.7969 53.3906 67.9531C53.2031 67.1094 53.0781 66.2812 53.0156 65.4688L52.875 64.2031C52.7812 63.4531 52.6562 62.4688 52.5 61.25C52.3438 60.0312 52.1875 58.6875 52.0312 57.2188C51.9062 55.75 51.7969 54.2344 51.7031 52.6719C51.6094 51.0781 51.5625 49.5312 51.5625 48.0312C51.5625 46.6875 51.6094 45.3906 51.7031 44.1406C51.8281 42.8906 51.9531 41.625 52.0781 40.3438C52.1406 39.6875 52.1875 39.1562 52.2188 38.75C52.25 38.3438 52.2969 37.8125 52.3594 37.1562C51.7344 38.1562 51.1094 39.3281 50.4844 40.6719C49.8594 42.0156 49.2656 43.4219 48.7031 44.8906C48.1406 46.3281 47.625 47.7344 47.1562 49.1094C46.7188 50.4844 46.375 51.6875 46.125 52.7188L45.8438 53.75C45.6875 54.25 45.5469 54.75 45.4219 55.25C45.3281 55.75 45.2812 56.2188 45.2812 56.6562C45.2812 57.2188 45.3125 57.875 45.375 58.625C45.4375 59.3438 45.5156 60.0312 45.6094 60.6875C45.7031 61.4688 45.8125 62.2656 45.9375 63.0781C45.9375 63.1406 45.9688 63.3438 46.0312 63.6875C46.0938 64.0312 46.1562 64.4375 46.2188 64.9062C46.2812 65.375 46.3281 65.875 46.3594 66.4062C46.4219 66.9062 46.4531 67.3594 46.4531 67.7656ZM84.0469 37.0625C84.0469 37.375 84.0156 37.7031 83.9531 38.0469C83.8906 38.3906 83.8281 38.7031 83.7656 38.9844C83.7031 39.3281 83.6406 39.6562 83.5781 39.9688C83.5156 40.25 83.4844 40.5312 83.4844 40.8125C83.4844 43.7188 83.5312 46.6406 83.625 49.5781C83.75 52.4844 84.0625 55.4062 84.5625 58.3438C84.7188 59.4688 84.9062 60.5625 85.125 61.625C85.3438 62.6875 85.5938 63.7656 85.875 64.8594L85.9688 65.1406V65.0469C86.0625 65.2656 86.1406 65.5 86.2031 65.75C86.2969 65.9688 86.3438 66.2031 86.3438 66.4531C86.3438 66.7969 86.25 67.0781 86.0625 67.2969C85.9062 67.5156 85.7031 67.6875 85.4531 67.8125C85.2031 67.9375 84.9219 68.0156 84.6094 68.0469C84.3281 68.0781 84.0625 68.0938 83.8125 68.0938C82.7812 68.0938 81.9531 67.9844 81.3281 67.7656C80.7344 67.5156 80.25 67.1875 79.875 66.7812C79.5 66.3438 79.2188 65.8281 79.0312 65.2344C78.875 64.6406 78.7344 63.9844 78.6094 63.2656L78.4688 62.4219C78.3438 61.9844 78.2656 61.5156 78.2344 61.0156C78.2031 60.7656 78.1719 60.6562 78.1406 60.6875C78.1406 60.6875 78.125 60.5625 78.0938 60.3125C77.6562 61.0938 77.1406 61.9375 76.5469 62.8438C75.9844 63.7188 75.3281 64.5469 74.5781 65.3281C73.8594 66.0781 73.0781 66.7188 72.2344 67.25C71.3906 67.75 70.4844 68 69.5156 68C68.1719 68 67.125 67.5938 66.375 66.7812C65.6562 65.9688 65.125 64.9844 64.7812 63.8281C64.4375 62.6406 64.2344 61.4219 64.1719 60.1719C64.1094 58.8906 64.0781 57.7812 64.0781 56.8438C64.0781 53.2812 64.1875 49.75 64.4062 46.25C64.6562 42.75 64.9219 39.2344 65.2031 35.7031C65.2031 35.6094 65.2031 35.4844 65.2031 35.3281C65.2344 35.1719 65.25 35.0469 65.25 34.9531C65.2812 34.5156 65.3125 34.1094 65.3438 33.7344C65.375 33.3594 65.4531 33 65.5781 32.6562V32.7031C65.7031 32.2031 65.875 31.8438 66.0938 31.625C66.3438 31.4062 66.7188 31.2969 67.2188 31.2969C67.6875 31.2969 68.1562 31.3906 68.625 31.5781C69.0938 31.7344 69.5156 31.9688 69.8906 32.2812C70.2656 32.5625 70.5625 32.9062 70.7812 33.3125C71.0312 33.7188 71.1562 34.1719 71.1562 34.6719C71.1562 34.9219 71.1562 35.2188 71.1562 35.5625C71.1562 35.9062 71.1406 36.2031 71.1094 36.4531C71.1094 36.6719 71.0938 36.9531 71.0625 37.2969C71.0625 37.6094 71.0625 37.875 71.0625 38.0938C70.8125 41.0938 70.625 44.0781 70.5 47.0469C70.375 49.9844 70.3125 52.9688 70.3125 56C70.3125 56.8438 70.3125 57.6875 70.3125 58.5312C70.3438 59.375 70.4375 60.2188 70.5938 61.0625C71.625 59.75 72.5156 58.0781 73.2656 56.0469C74.0156 53.9844 74.6406 51.8125 75.1406 49.5312C75.6719 47.2188 76.0938 44.9375 76.4062 42.6875C76.75 40.4062 77 38.3906 77.1562 36.6406C77.1562 36.5469 77.1562 36.4375 77.1562 36.3125C77.1875 36.1875 77.2031 36.0781 77.2031 35.9844C77.2344 35.6406 77.2656 35.3125 77.2969 35C77.3281 34.6875 77.4375 34.3906 77.625 34.1094C77.625 33.8281 77.6406 33.5312 77.6719 33.2188C77.7031 32.9062 77.7812 32.625 77.9062 32.375C78.0312 32.0938 78.2031 31.875 78.4219 31.7188C78.6719 31.5625 79.0156 31.4844 79.4531 31.4844C80.7031 31.4844 81.6875 31.875 82.4062 32.6562C83.125 33.4062 83.5156 34.375 83.5781 35.5625C83.7344 35.8125 83.8438 36.0625 83.9062 36.3125C84 36.5312 84.0469 36.7812 84.0469 37.0625ZM109.359 66.3594C109.359 66.7344 109.219 67.0312 108.938 67.25C108.688 67.4375 108.391 67.5781 108.047 67.6719C107.703 67.7656 107.344 67.8281 106.969 67.8594C106.594 67.8906 106.297 67.9062 106.078 67.9062C105.609 67.9062 105.188 67.8906 104.812 67.8594C104.438 67.8281 104.078 67.75 103.734 67.625C103.422 67.5 103.125 67.3125 102.844 67.0625C102.562 66.8125 102.281 66.4688 102 66.0312C101.469 65.0625 100.969 64.0625 100.5 63.0312C100.062 62 99.625 60.9844 99.1875 59.9844C98.9688 59.4219 98.7812 58.9688 98.625 58.625C98.5 58.2812 98.3125 57.8438 98.0625 57.3125C97.375 59.0938 96.6719 60.8281 95.9531 62.5156C95.2656 64.2031 94.5469 65.8906 93.7969 67.5781C93.5781 68.0156 93.3281 68.4375 93.0469 68.8438C92.7969 69.2812 92.3438 69.5 91.6875 69.5C91.3438 69.5 90.9219 69.3906 90.4219 69.1719C89.9531 68.9844 89.4844 68.7188 89.0156 68.375C88.5781 68.0625 88.1875 67.7031 87.8438 67.2969C87.5312 66.8906 87.375 66.4844 87.375 66.0781C87.375 65.7656 87.4375 65.4531 87.5625 65.1406C87.6875 64.7969 87.8281 64.4688 87.9844 64.1562H87.9375C89.125 61.5938 90.2344 59.0781 91.2656 56.6094C92.3281 54.1094 93.375 51.5938 94.4062 49.0625C94.1875 48.5625 93.875 47.7969 93.4688 46.7656C93.0938 45.7344 92.6719 44.5938 92.2031 43.3438C91.7344 42.0938 91.25 40.7812 90.75 39.4062C90.25 38.0312 89.7969 36.75 89.3906 35.5625C89.0156 34.3438 88.6875 33.2812 88.4062 32.375C88.1562 31.4375 88.0312 30.7812 88.0312 30.4062C88.0312 29.7812 88.2188 29.3906 88.5938 29.2344C89 29.0469 89.4531 28.9531 89.9531 28.9531C90.9531 28.9531 91.8125 29.1562 92.5312 29.5625C93.2812 29.9688 93.8594 30.6562 94.2656 31.625C94.4219 32.0312 94.5781 32.4688 94.7344 32.9375C94.9219 33.375 95.0781 33.8125 95.2031 34.25L95.625 35.4219C96 36.4219 96.3281 37.3281 96.6094 38.1406C96.9219 38.9531 97.2969 39.8438 97.7344 40.8125C98.5156 38.8125 99.2344 36.75 99.8906 34.625C100.578 32.4688 101.078 30.3125 101.391 28.1562L101.531 26.8906C101.531 26.4531 101.594 25.9844 101.719 25.4844C101.875 25.0469 102.047 24.7188 102.234 24.5C102.453 24.2812 102.828 24.1719 103.359 24.1719C103.859 24.1719 104.344 24.25 104.812 24.4062C105.281 24.5625 105.703 24.7969 106.078 25.1094C106.453 25.3906 106.75 25.75 106.969 26.1875C107.219 26.5938 107.344 27.0781 107.344 27.6406C107.344 28.5156 107.234 29.5469 107.016 30.7344C106.828 31.8906 106.562 33.125 106.219 34.4375C105.875 35.7188 105.484 37.0469 105.047 38.4219C104.641 39.7969 104.203 41.1406 103.734 42.4531C103.297 43.7344 102.859 44.9531 102.422 46.1094C102.016 47.2344 101.656 48.2188 101.344 49.0625L104.203 55.1094C104.766 56.2969 105.344 57.5312 105.938 58.8125C106.562 60.0938 107.125 61.2812 107.625 62.375C108.125 63.4375 108.531 64.3438 108.844 65.0938C109.188 65.8438 109.359 66.2656 109.359 66.3594ZM138.469 61.1562C138.469 61.875 138.078 62.5625 137.297 63.2188C136.547 63.875 135.562 64.4844 134.344 65.0469C133.156 65.5781 131.828 66.0781 130.359 66.5469C128.922 66.9844 127.5 67.3594 126.094 67.6719C124.719 67.9844 123.453 68.2188 122.297 68.375C121.141 68.5625 120.281 68.6562 119.719 68.6562C118.656 68.6562 117.672 68.5312 116.766 68.2812C115.891 68.0312 115.125 67.6562 114.469 67.1562C113.812 66.625 113.297 65.9531 112.922 65.1406C112.578 64.3281 112.406 63.3438 112.406 62.1875C112.406 53.8438 112.438 45.5312 112.5 37.25C112.562 28.9688 112.594 20.625 112.594 12.2188C112.594 10.9062 112.562 9.60937 112.5 8.32812C112.438 7.04688 112.406 5.75 112.406 4.4375C112.406 4.125 112.422 3.76563 112.453 3.35938C112.484 2.92188 112.562 2.53125 112.688 2.1875C112.812 1.8125 113 1.5 113.25 1.25C113.5 1 113.844 0.875 114.281 0.875C114.719 0.875 115.172 0.9375 115.641 1.0625C116.141 1.1875 116.594 1.375 117 1.625C117.438 1.875 117.812 2.1875 118.125 2.5625C118.469 2.90625 118.719 3.3125 118.875 3.78125C119.031 4.34375 119.094 4.95312 119.062 5.60938C119.062 6.23437 119.062 6.875 119.062 7.53125C119.219 15.8437 119.328 24.0938 119.391 32.2812C119.484 40.4688 119.531 48.7188 119.531 57.0312C119.531 57.9688 119.531 58.9062 119.531 59.8438C119.562 60.7812 119.625 61.7188 119.719 62.6562C120.562 62.625 121.594 62.4844 122.812 62.2344C124.031 61.9844 125.25 61.6719 126.469 61.2969C127.719 60.8906 128.891 60.4375 129.984 59.9375C131.078 59.4375 131.938 58.9062 132.562 58.3438C132.844 58.0625 133.141 57.7812 133.453 57.5C133.766 57.1875 134.156 57.0312 134.625 57.0312C135.031 57.0312 135.453 57.1719 135.891 57.4531C136.359 57.7344 136.781 58.0938 137.156 58.5312C137.531 58.9375 137.844 59.375 138.094 59.8438C138.344 60.3125 138.469 60.75 138.469 61.1562ZM159.047 67.3906C159.047 68.0156 158.891 68.4375 158.578 68.6562C158.266 68.9062 157.828 69.0312 157.266 69.0312C155.797 69.0312 154.734 68.6406 154.078 67.8594C153.453 67.0781 152.984 66.0469 152.672 64.7656C152.578 64.3281 152.484 63.8906 152.391 63.4531C152.297 62.9844 152.219 62.5312 152.156 62.0938C152.094 61.6875 152.031 61.4062 151.969 61.25C151.906 61.0938 151.844 60.7969 151.781 60.3594C151.406 61.2656 150.938 62.2188 150.375 63.2188C149.844 64.1875 149.219 65.0938 148.5 65.9375C147.781 66.75 146.969 67.4219 146.062 67.9531C145.188 68.4844 144.219 68.75 143.156 68.75C142.031 68.75 141.094 68.4844 140.344 67.9531C139.594 67.3906 139 66.7031 138.562 65.8906C138.156 65.0469 137.859 64.125 137.672 63.125C137.516 62.125 137.438 61.1719 137.438 60.2656C137.438 58.1406 137.641 55.8438 138.047 53.375C138.484 50.875 139.078 48.3906 139.828 45.9219C140.578 43.4219 141.453 41.0312 142.453 38.75C143.453 36.4375 144.547 34.4219 145.734 32.7031V32.75L146.016 32.3281C146.359 31.8594 146.75 31.3594 147.188 30.8281C147.656 30.2656 148.203 29.9844 148.828 29.9844C149.422 29.9844 149.938 30.25 150.375 30.7812C150.812 31.2812 151.125 31.8125 151.312 32.375C152.125 32.5312 152.781 32.7344 153.281 32.9844C153.781 33.2031 154.172 33.4844 154.453 33.8281C154.734 34.1719 154.922 34.5781 155.016 35.0469C155.109 35.4844 155.156 35.9688 155.156 36.5C155.156 36.7188 155.156 36.9531 155.156 37.2031C155.156 37.4531 155.141 37.7031 155.109 37.9531C155.078 38.2031 155.062 38.5 155.062 38.8438C155.062 39.1875 155.062 39.5 155.062 39.7812C155.062 40.0938 155.109 40.5 155.203 41C155.328 41.5 155.453 42.0156 155.578 42.5469L155.906 44.2812C156.062 45.1875 156.188 46.2188 156.281 47.375C156.406 48.5312 156.547 49.6875 156.703 50.8438C156.828 52.0312 156.953 53.1875 157.078 54.3125C157.203 55.4062 157.328 56.4219 157.453 57.3594L158.578 64.2969L158.719 65.0938C158.781 65.5 158.844 65.875 158.906 66.2188C159 66.5625 159.047 66.9531 159.047 67.3906ZM148.312 40.4375C148.312 40.375 148.297 40.2812 148.266 40.1562C148.234 40 148.203 39.8438 148.172 39.6875C147.453 41.2188 146.812 42.8906 146.25 44.7031C145.719 46.4844 145.266 48.3125 144.891 50.1875C144.547 52.0312 144.281 53.8906 144.094 55.7656C143.938 57.6094 143.859 59.3594 143.859 61.0156C143.859 61.1719 143.859 61.3125 143.859 61.4375C143.859 61.5625 143.875 61.6875 143.906 61.8125V61.8594C144.656 60.7031 145.297 59.1875 145.828 57.3125C146.391 55.4062 146.859 53.4219 147.234 51.3594C147.609 49.2656 147.875 47.25 148.031 45.3125C148.219 43.3438 148.312 41.7188 148.312 40.4375ZM183.609 41.5156C183.609 42.7969 183.547 44.2188 183.422 45.7812C183.297 47.3125 183.109 48.9062 182.859 50.5625C182.609 52.2188 182.266 53.8906 181.828 55.5781C181.422 57.2344 180.922 58.8281 180.328 60.3594C179.734 61.8906 179.031 63.3125 178.219 64.625C177.438 65.9062 176.547 66.9844 175.547 67.8594C174.828 68.4844 174.016 68.9844 173.109 69.3594C172.234 69.7656 171.328 69.9688 170.391 69.9688C170.047 69.9688 169.688 69.9062 169.312 69.7812C168.938 69.6875 168.656 69.4375 168.469 69.0312C167.781 68.9688 167.094 68.8281 166.406 68.6094C165.75 68.4219 165.203 67.9844 164.766 67.2969C164.672 67.0781 164.594 66.8125 164.531 66.5C164.469 66.1875 164.406 65.8594 164.344 65.5156C164.312 65.3594 164.281 65.2188 164.25 65.0938C164.219 64.9375 164.188 64.7969 164.156 64.6719C163.25 59.0469 162.625 53.4219 162.281 47.7969C161.969 42.1719 161.812 36.5 161.812 30.7812C161.812 30.2812 161.812 29.4062 161.812 28.1562C161.812 26.9062 161.812 25.4844 161.812 23.8906C161.844 22.2969 161.859 20.625 161.859 18.875C161.891 17.125 161.922 15.4844 161.953 13.9531C161.984 12.4219 162.031 11.1094 162.094 10.0156C162.156 8.89062 162.219 8.17188 162.281 7.85938C162.406 7.42188 162.578 7.0625 162.797 6.78125C163.016 6.5 163.391 6.35938 163.922 6.35938C165.391 6.35938 166.438 6.82812 167.062 7.76562C167.719 8.67187 168.047 9.79687 168.047 11.1406V23.1875C168.047 24.6562 168.047 25.9844 168.047 27.1719C168.047 28.3281 168.047 29.4688 168.047 30.5938C168.078 31.6875 168.109 32.8281 168.141 34.0156C168.172 35.1719 168.219 36.4688 168.281 37.9062C168.656 37.0625 169.109 36.2344 169.641 35.4219C170.203 34.6094 170.828 33.875 171.516 33.2188C172.203 32.5625 172.969 32.0312 173.812 31.625C174.656 31.2188 175.594 31.0156 176.625 31.0156C178.125 31.0156 179.328 31.3438 180.234 32C181.172 32.6562 181.875 33.5 182.344 34.5312C182.844 35.5312 183.172 36.6562 183.328 37.9062C183.516 39.1562 183.609 40.3594 183.609 41.5156ZM177.141 40.4375C177.141 39.8125 177.109 39.125 177.047 38.375C177.016 37.625 176.828 36.9688 176.484 36.4062C176.203 36.625 175.953 36.8594 175.734 37.1094C175.547 37.3594 175.344 37.6406 175.125 37.9531L175.031 38.0938V38.0469C174.156 39.4844 173.438 41.1562 172.875 43.0625C172.344 44.9688 171.906 46.9531 171.562 49.0156C171.25 51.0469 171.031 53.0781 170.906 55.1094C170.781 57.1094 170.719 58.9219 170.719 60.5469C170.719 60.8906 170.719 61.4062 170.719 62.0938C170.75 62.75 170.812 63.2969 170.906 63.7344C172.125 62.7031 173.125 61.2031 173.906 59.2344C174.719 57.2344 175.359 55.0938 175.828 52.8125C176.328 50.5 176.672 48.2344 176.859 46.0156C177.047 43.7969 177.141 41.9375 177.141 40.4375Z" fill="#F4F2C9"/>
</svg>
